<svg xmlns:dc="http://purl.org/dc/elements/1.1/" xmlns:cc="http://creativecommons.org/ns#" xmlns:rdf="http://www.w3.org/1999/02/22-rdf-syntax-ns#" xmlns:svg="http://www.w3.org/2000/svg" xmlns="http://www.w3.org/2000/svg" version="1.1" viewBox="0 0 100 125" xml:space="preserve" x="0px" y="0px"><path d="m 23.71875,5 c -2.4765,0 -4.5,2.0235003 -4.5,4.5 0,0.953201 0.310648,2.361324 1.03125,3.21875 1.263334,1.819747 7.53125,7.40625 7.53125,7.40625 0.09122,0.09122 0.189358,0.15625 0.3125,0.15625 0.11858,0 0.252535,-0.06504 0.34375,-0.15625 0,0 6.272476,-5.586503 7.53125,-7.40625 C 36.689353,11.861324 37,10.453201 37,9.5 37,7.0235003 34.976499,5 32.5,5 30.329072,5 28.09375,7.90625 28.09375,7.90625 28.09375,7.90625 25.885117,5 23.71875,5 z M 67.5,5 C 65.023501,5 63,7.0235003 63,9.5 c 0,0.953201 0.310648,2.365886 1.03125,3.21875 1.258774,1.824309 7.53125,7.40625 7.53125,7.40625 0.09122,0.09122 0.220608,0.15625 0.34375,0.15625 0.11858,0 0.221284,-0.06504 0.3125,-0.15625 0,0 6.272476,-5.581941 7.53125,-7.40625 C 80.470602,11.865886 80.78125,10.453201 80.78125,9.5 80.78125,7.0235003 78.788999,5 76.3125,5 74.141572,5 71.90625,7.90625 71.90625,7.90625 71.90625,7.90625 69.670928,5 67.5,5 z m -24.34375,8.21875 c -3.853852,0 -7,3.146148 -7,7 0,1.486812 0.467239,3.672816 1.59375,5 1.95657,2.836801 11.71875,11.5625 11.71875,11.5625 C 49.614695,36.922633 49.808448,37 50,37 c 0.186991,0 0.385306,-0.07736 0.53125,-0.21875 0,0 9.757618,-8.725699 11.71875,-11.5625 1.12195,-1.327184 1.59375,-3.513188 1.59375,-5 0,-3.853852 -3.146147,-7 -7,-7 C 53.464217,13.21875 50,17.75 50,17.75 c 0,0 -3.468777,-4.53125 -6.84375,-4.53125 z m -19.5625,25.8125 c -1.778701,0 -3.1875,1.435488 -3.1875,3.21875 l 0,8.5 c 0.145945,0.01368 0.286994,0.03125 0.4375,0.03125 1.787822,0 3.1875,-0.986665 3.1875,-2.25 0,-0.04561 0.02217,-0.110647 0.03125,-0.15625 0.104898,-2.084273 2.553065,-3.75 5.53125,-3.75 2.964501,0 5.40811,1.64816 5.53125,3.71875 0.01368,0.05473 0.03125,0.132771 0.03125,0.1875 0,1.263335 1.399676,2.25 3.1875,2.25 1.783262,0 3.21875,-0.986665 3.21875,-2.25 0,-0.04561 -0.01364,-0.110647 0,-0.15625 0.104897,-2.084273 2.553066,-3.75 5.53125,-3.75 2.969063,0 5.42179,1.670288 5.53125,3.75 0.01368,0.05017 0.03125,0.106082 0.03125,0.15625 0,1.263335 1.430928,2.25 3.21875,2.25 1.783264,0 3.1875,-0.986665 3.1875,-2.25 -0.0046,-0.04561 0.02217,-0.110647 0.03125,-0.15625 0.104898,-2.088833 2.553066,-3.75 5.53125,-3.75 2.964502,0 5.41267,1.64816 5.53125,3.71875 0.01824,0.05473 0.03125,0.132771 0.03125,0.1875 0,1.263335 1.399678,2.25 3.1875,2.25 1.783262,0 3.21875,-0.986665 3.21875,-2.25 0,-0.04561 -0.0091,-0.110647 0,-0.15625 0.07297,-1.445765 1.271467,-2.709803 3,-3.34375 l 0,-2.78125 c 0,-1.783262 -1.435488,-3.21875 -3.21875,-3.21875 l -52.78125,0 z m 6,7.21875 c -1.787824,0 -3.21875,1.017916 -3.21875,2.28125 0.0046,0.05473 0.0091,0.10152 0,0.15625 -0.123141,2.07059 -2.566748,3.75 -5.53125,3.75 -0.150506,0 -0.291555,-0.02217 -0.4375,-0.03125 l 0,5.625 59.1875,0 0,-10.90625 c -0.424151,0.383103 -0.65625,0.87264 -0.65625,1.40625 0,0.05473 -0.01761,0.10152 -0.03125,0.15625 -0.11858,2.07059 -2.566747,3.75 -5.53125,3.75 -2.978185,0 -5.430913,-1.696978 -5.53125,-3.78125 -0.01368,-0.04561 0,-0.07939 0,-0.125 0,-1.263334 -1.435488,-2.28125 -3.21875,-2.28125 -1.787822,0 -3.21875,1.017916 -3.21875,2.28125 0,0.05473 0.0182,0.10152 0,0.15625 -0.11858,2.07059 -2.566747,3.75 -5.53125,3.75 -2.978183,0 -5.426352,-1.692417 -5.53125,-3.78125 -0.0091,-0.04561 -0.03581,-0.07939 -0.03125,-0.125 0,-1.263334 -1.435487,-2.28125 -3.21875,-2.28125 -1.787823,0 -3.1875,1.017916 -3.1875,2.28125 0,0.05017 -0.01761,0.106082 -0.03125,0.15625 -0.114019,2.079712 -2.562187,3.75 -5.53125,3.75 -2.978185,0 -5.426353,-1.696978 -5.53125,-3.78125 -0.0091,-0.04561 0,-0.07939 0,-0.125 0,-1.263334 -1.430928,-2.28125 -3.21875,-2.28125 z m -11.4375,13.6875 c -2.809435,0 -5.09375,2.279753 -5.09375,5.09375 l 0,24.5 73.875,0 0,-24.5 c 0,-2.813997 -2.284315,-5.09375 -5.09375,-5.09375 l -63.6875,0 z m 2.71875,8.90625 c 1.678364,0 3.40625,2.25 3.40625,2.25 0,0 1.732447,-2.25 3.40625,-2.25 1.915525,0 3.4375,1.526536 3.4375,3.4375 0,0.738845 -0.224836,1.838689 -0.78125,2.5 -0.976005,1.404718 -5.8125,5.75 -5.8125,5.75 -0.07297,0.06841 -0.154223,0.09375 -0.25,0.09375 -0.09121,0 -0.181588,-0.02533 -0.25,-0.09375 0,0 -4.841056,-4.345282 -5.8125,-5.75 -0.560975,-0.661311 -0.8125,-1.761155 -0.8125,-2.5 0,-1.910964 1.557786,-3.4375 3.46875,-3.4375 z m 17.15625,0 c 1.673803,0 3.40625,2.25 3.40625,2.25 0,0 1.696636,-2.25 3.375,-2.25 1.910964,0 3.46875,1.526536 3.46875,3.4375 0,0.738845 -0.224837,1.838689 -0.78125,2.5 -0.971446,1.404718 -5.8125,5.75 -5.8125,5.75 -0.06841,0.06841 -0.158784,0.09375 -0.25,0.09375 -0.09577,0 -0.208277,-0.02533 -0.28125,-0.09375 0,0 -4.836495,-4.345282 -5.8125,-5.75 -0.556414,-0.661311 -0.78125,-1.761155 -0.78125,-2.5 0,-1.910964 1.553226,-3.4375 3.46875,-3.4375 z m 17.15625,0 c 1.673804,0 3.375,2.25 3.375,2.25 0,0 1.732447,-2.25 3.40625,-2.25 1.915525,0 3.46875,1.526536 3.46875,3.4375 0,0.738845 -0.220274,1.838689 -0.78125,2.5 -0.971443,1.404718 -5.8125,5.75 -5.8125,5.75 -0.07297,0.06841 -0.185474,0.09375 -0.28125,0.09375 -0.09122,0 -0.181588,-0.02533 -0.25,-0.09375 0,0 -4.841056,-4.345282 -5.8125,-5.75 -0.560975,-0.661311 -0.78125,-1.761155 -0.78125,-2.5 0,-1.910964 1.557787,-3.4375 3.46875,-3.4375 z m 17.125,0 c 1.678364,0 3.40625,2.25 3.40625,2.25 0,0 1.727886,-2.25 3.40625,-2.25 1.910963,0 3.46875,1.526536 3.46875,3.4375 0,0.738845 -0.256085,1.838689 -0.8125,2.5 -0.971444,1.404718 -5.8125,5.75 -5.8125,5.75 -0.06841,0.06841 -0.158784,0.09375 -0.25,0.09375 -0.09578,0 -0.177028,-0.02533 -0.25,-0.09375 0,0 -4.836495,-4.345282 -5.8125,-5.75 -0.556414,-0.661311 -0.8125,-1.761155 -0.8125,-2.5 0,-1.910964 1.557786,-3.4375 3.46875,-3.4375 z M 9.875,91.78125 c -0.8939112,0 -1.625,0.695278 -1.625,1.59375 0,0.893912 0.7310888,1.625 1.625,1.625 l 80.25,0 c 0.893911,0 1.625,-0.731088 1.625,-1.625 0,-0.898472 -0.731089,-1.59375 -1.625,-1.59375 l -80.25,0 z" style="" fill="rgb(224, 142, 177)" fill-opacity="1" fill-rule="nonzero" stroke="none"/></svg>