<svg xmlns="http://www.w3.org/2000/svg" xmlns:xlink="http://www.w3.org/1999/xlink" version="1.1" x="10px" y="10px" viewBox="0 0 100 125" style="enable-background:new 0 0 100 100;" fill="#777" xml:space="preserve"><path d="M50,64.6c0.6-1.3,1.5-3,2.3-4.7c0.7-1.8,1.2-3.6,1.9-5.4c0.3-0.9,0.8-1.7,1.3-2.5c-1.2,0.4-2.4,1-3.5,1.9  c-1,0.8-2,1.8-2.9,2.7c-1.3,1.3-3,1.9-4.7,2.3c-1.1,0.3-2.7-1-3.2-2.4c-0.5-1.3-0.6-2.6,0.4-3.7c0.5-0.6,0.8-1.3,1.3-2  c0.4-0.6,0.2-1-0.5-1.1c-1.7-0.4-3.5-0.7-5.2-1.1c-1.2-0.3-2.5-2.1-2.3-3.3c0.4-2.2,1.2-4,3.7-4.7c0.9-0.2,1.6-0.7,2.7-1.2  c-1.1-0.5-1.9-0.8-2.7-1.2c-1-0.5-1.5-1.3-1.5-2.3c0-1,0.8-1.4,1.8-1.7c0.7-0.2,1.4-0.5,2.1-0.7c-1.5-1.3-1.2-3.4-2.5-4.7  c-0.2,0.2-0.4,0.4-0.6,0.7c-0.3,0.5-0.6,0.8-0.1,1.5c0.6,0.8,0.4,1.6-0.5,2.2c-0.8,0.6-1.6,1-2.5,1.5c-0.4,0.2-1,0.2-1.3,0  c-0.8-0.4-1.3-0.1-2,0.3c-1.3,0.8-2.5,1.7-4.2,1.6c-2.2-0.1-3.2-1.5-2.2-3.4c0.4-0.7,1.1-1.3,1.6-2c0.2-0.3,0.5-0.5,0.6-0.9  c0.2-1.3,0.6-1.8,2-2c1.2-0.2,1.9-0.5,2-1.9c0.1-1.8,1.1-2.6,2.9-2.9c0.6-0.1,1.3,0.1,2.1,0.2c-0.8-1.2-1.2-2.7-3.5-2.6  c-1.1,0.7-1.6,2-2.1,3.4c-0.2,0.7-0.4,1.3-0.7,2c-0.1,0.2-0.4,0.4-0.6,0.4c-0.2,0-0.5-0.3-0.5-0.4c-0.1-0.7,0-1.4,0-2  c0-0.4,0-0.8,0-1.3c-0.6,0.1-0.9,0.2-1.2,0.3c-0.2,1.1-0.3,2.1-0.5,3.1c-0.1,0.7-0.8,1.4-1.5,1.4c-0.8-0.1-1.3-0.5-1.3-1.3  c-0.1-1.5-0.6-3.1,0.2-4.7c-1,0.4-1.8,0.7-2.6,1c-1.5,0.5-2.4-0.2-2.3-1.7c0-0.3-0.3-0.6-0.6-0.9c-1.5-1.5-1.3-2.8,0.8-3.5  c-0.2-1-0.4-2-0.7-3c-0.2-1.1,0.7-2.8,2.3-2.6c0.2,0,0.4,0,0.3,0c0.5-0.6,1-1.1,1.3-1.6C22.9,9.2,23,9,23.1,8.8  c0.2-1.6,0.4-1.8,2-2.1c0.3-0.1,0.7-0.3,0.8-0.5c0.7-1,1.5-1.5,2.8-1.4c0.4,0,0.7-0.1,1-0.4c0.5-0.7,1.2-1,2.1-0.7  c0.3,0.1,0.6,0,0.9-0.1C34,2.8,34.8,3,35.8,4.1c1.2-1.1,2.5-1.4,3.5-0.4c0.8,0.8,1.7,1.5,2.7,2c0.4,0.2,0.5,0.8,0.8,1.3  c0.8,0,1.6,0.2,1.7,1.3c0,0.1,0.1,0.2,0.2,0.2c1.3,1.1,1.4,2,0.5,3.6c1.3,0.4,2.4,1,2,2.5c-0.4,1.5-1.8,1.1-2.9,1.2  c0.2,0.5,0.5,0.9,0.6,1.3c0.1,0.4,0.3,1,0.1,1.2c-0.5,0.3-1.2,0.6-1.7,0.5c-0.7-0.1-1.4-0.5-2-0.8c0.1,0.5,0.3,1,0.5,1.5  c0.1,0.3,0.3,0.7,0.5,1c1,1.1,0.9,1.7-0.5,2.7c-0.2-0.5-0.4-1-0.5-1.6c-0.1-1.1-1.2-1.6-1.9-2.2c-0.5-0.5-1.7,0-1.7,0.7  c0,0.9-0.4,1.2-1.4,1.1c1,0.5,1.4,1.2,1.7,2.1c0.5,1.4,1.1,2.8,1.7,4.4c1.3-1.4,2.8-1.5,4.4-1.2c-0.1-1.3,0.5-1.8,1.6-1.4  c2.1,0.8,4.2,1.8,5.3,3.9c0.2,0.3,0.3,0.6,0.5,1c0.1-0.9,0.2-1.9,1.4-2.2c1-0.3,1.9-0.5,2.8,0.2c0.8-2.2,3-3.2,4.6-1.7  c0.8-0.5,1.5-1,2.3-1.3c1.1-0.4,1.6-0.1,2.2,0.8c1.1-1.6,3.5-1.2,4.6,0.2c1.5-0.9,2.7-0.7,3.9,0.6c0.2,0.2,0.4,0.3,0.7,0.3  c0.4,0.1,1,0.1,1.3,0.4c0.6,0.5,1.2,0.6,1.9,0.7c1.8,0.3,2.7,1.9,2.4,3.8c2.9,0.3,3.8,1.9,2.5,4.8c1.1,0,1.8,0.6,2,1.6  c0.3,1.3-0.3,2.1-1.2,2.4c-0.2,0.7-0.3,1.2-0.4,1.8c-0.1,0.4-0.1,0.7-0.1,1.1c0,1-0.4,1.3-1.4,1.2c-0.3,0-0.5,0.2-0.8,0.2  c-0.3,0.1-0.5,0.1-0.8,0.1c-1.4,0-2.6-0.6-3.8-1.4c-0.1,0.7,0.1,1,0.8,1.2c1.6,0.5,2.5,2.5,1.9,3.9c-0.1,0.3-0.6,0.5-0.9,0.8  c-0.3,0.2-0.6,0.4-1,0.7c0.3,0.3,0.5,0.5,0.8,0.7c1,0.6,1.1,1.5,0.9,2.4c-0.2,0.8-0.7,1.5-1.6,1.8c-0.9,0.3-1.8,0.4-2.5,0.9  c-1.4,0.8-2.8,1.8-4.1,2.8c-2.1,1.5-4,3.3-6.5,4.3c-1.3,0.5-2.8,0.8-4.1,1.2c-1.1,0.3-1.9-0.3-2.5-1.1c-0.4-0.5,0.2-0.7,0.5-0.8  c1.7-0.7,3.1-1.8,4.2-3.1c1-1.2,1.9-2.4,1.6-4.2c-0.4,0-0.7,0-1,0c-0.9,0-1.5-0.4-1.9-1.2c-0.4-0.7,0-1.3,0.4-1.9  c0.5-0.7,0.9-1.4,1.5-2.3c-0.5-0.1-0.7-0.2-1-0.2c-1.2-0.1-2.3,0-3.5-0.1c-1.3-0.1-2.1-1.3-1.6-2.4c0.3-0.8,0.9-1.4,1.2-2  c-0.3-0.3-0.6-0.6-0.9-0.9c-0.6,0.6-1.3,1.4-2,2.3c-0.6,0.8-0.3,2.1,0.6,2.7c0.6,0.4,1.3,0.6,1.9,0.9c0.8,0.4,1.6,0.8,2.4,1.3  c0.1,0.1,0.2,0.4,0.1,0.5c0,0.1-0.3,0.2-0.4,0.2c-0.9-0.4-1,0.2-1.2,0.7c-0.8,2.1-1.5,4.3-2.4,6.4c-1.9,4.5-3.8,8.9-5.8,13.3  c-0.4,0.9-1,1.7-1.6,2.6c-0.3,0.5-0.6,1-0.9,1.5c0.9-0.1,1.7-0.2,2.5-0.3c2.5-0.4,4.5,0.1,5.8,2.4c0.5,0.8,0.9,1.7,1.4,2.6  c0.3,0.4,0.6,0.9,1,1.1c1.8,1,3.8,1.5,5.9,1.8c1.2,0.2,1.2,0.4,1.4,1.5c0.4,2.1-0.6,3.7-1.5,5.5c-1.5,3.1-4,5.4-6.6,7.5  c-5.3-5.9-12.9-5.9-16.2-13.2c-4.4,4.1-9.8,7.3-16.4,9.3c4.4-5.2,12-8.3,15.9-13.8c1.4-1.6,2.9-3.2,4.1-5c1.2-1.8,2.2-3.7,3.3-5.8  c-1,0-1.8,0-2.7,0c-0.9,0-1.2,0.5-1.4,1.2c-0.1,0.7-0.2,1.3-0.4,2c-0.4,1.8-1.4,2.3-3.3,1.9c-4.8-0.2-5.9,7-10.3,3.9  c-3.3-2.1-1.1-8.3,0.4-12.5c2.2-1.2,4.4-2.1,7-1.5c0.2,0,0.5,0,0.7,0c1.1-2.9,3.2-4,6.4-3.2c1.4,0.4,2.7,1,4,1.6  C48.8,63.7,49.4,64.2,50,64.6z M64.3,37.5c0.1,0,0.2,0,0.3,0.1c0-0.5-0.1-1.1-0.1-1.6c-0.1-1.7-0.8-2.9-2.7-3.4  c-1.2-0.3-2.2,0.3-2.4,1.4c-0.3,1.5,0.6,2.4,1.7,3.1c0.4,0.2,0.9,0.4,1.3,0.4C63.1,37.5,63.7,37.5,64.3,37.5z M31.7,17.7  c0,0.1,0,0.2,0,0.3c-1.4,0-2.5,0.6-3.6,1.3c-0.8,0.5-1.1,1-1,1.8c0,0.4,0.1,1.1,0.4,1.2c0.4,0.1,0.9-0.1,1.3-0.3  c1.6-0.9,2.5-2.4,3.1-4c0.2-0.4,0.4-0.8,0.6-1.2c-0.3-0.1-0.5-0.1-0.7-0.2c-1.5-0.5-3-0.8-4.6-0.3c-0.4,0.1-0.7,0.4-0.9,0.7  c-0.1,0.1,0.3,0.6,0.6,0.8c0.2,0.2,0.5,0.2,0.8,0.2c0.9-0.1,1.8-0.3,2.7-0.4C30.8,17.7,31.2,17.7,31.7,17.7z M58.3,40  c0.1,0.1,0.2,0.3,0.3,0.4c-0.4,0.3-0.8,0.6-1.2,0.9c-0.7,0.6-0.9,1.6-0.4,2.3c0.2,0.2,0.5,0.4,0.7,0.4c0.2,0,0.5-0.3,0.5-0.5  c0.4-1.2,0.8-2.5,1.3-3.8c-0.3-0.2-0.6-0.4-0.9-0.5c-2.5-0.7-5.2,0.7-5.9,3.1c-0.1,0.2,0,0.5,0.1,0.6c0.2,0.1,0.5,0.2,0.7,0.2  c0.5-0.2,0.9-0.4,1.3-0.7C56,41.6,57.1,40.8,58.3,40z M42.5,32.3c1.4,1.9,3.6,2.7,5.3,3.7c0.7-0.7,1.3-1.2,1.8-1.7  c-0.3-0.4-0.7-0.9-1-1.4c-0.1-0.1-0.2-0.3-0.4-0.3c-1-0.3-1.9-0.6-2.9-0.9c-0.2-0.1-0.7-0.1-0.8,0.1C44.1,32.7,43.4,32.5,42.5,32.3z   M55.3,38.4c-0.3-0.8-0.6-1.4-0.9-2.1c0-0.1-0.1-0.2-0.2-0.3c-1-1.1-2.4-1.5-3.8-1c-0.5,0.2-1.1,0.7-1.2,1.1  c-0.1,0.5,0.3,1.1,0.7,1.5c0.3,0.3,0.8,0.5,1.2,0.6C52.6,38.3,54.1,38.4,55.3,38.4z M71.9,37c0.9-0.1,1.7-0.1,2.5-0.2  c1.5-0.1,2.8-0.8,3.6-2.1c0.4-0.7,0.4-1.4-0.3-2.1c-0.7-0.6-1.1-0.1-1.6,0.1c-0.2,0.1-0.3,0.4-0.5,0.6c-0.7,0.7-1.3,1.5-2.1,1.9  C72.5,35.6,72.1,36.1,71.9,37z M30.7,12.1c0.1-1.6-0.8-2.6-1.9-3.6c-0.4-0.4-1.9-0.3-2.1,0.2c-0.2,0.8-0.3,1.6-0.2,2.4  c0.1,1.2,1.4,1.4,2.1,2.1C29.4,12.7,30.1,12.4,30.7,12.1z M64.9,37.4c0.5-0.3,0.8-0.4,0.8-0.5c0.5-1.1,1.4-1.8,2.4-2.5  c0.6-0.4,0.9-1.9,0.6-2.4c-0.4-0.7-1.6-1.1-2.3-0.8c-0.9,0.3-2,1.7-1.7,2.4C65.2,34.8,65.6,35.9,64.9,37.4z M69.5,39.1  c0.4,1.2,1.4,1.3,2.6,1c1.2-0.3,2.4-0.3,3.5-0.5c0.5-0.1,1-0.4,0.9-1.1c-0.1-0.7-0.5-1-1.2-1C73.1,37.3,71.2,37.9,69.5,39.1z   M76.6,37.2c0.1,0.1,0.4,0.3,0.6,0.3c1.2-0.4,2.5-0.3,3.6-1.1c1.5-1,1.7-2.8,0.2-3.8c-0.5-0.3-1.3-0.3-1.9-0.2  c-0.6,0.2-0.2,0.8-0.2,1.2c0,0.5,0,1.2-0.3,1.6C78,36,77.2,36.5,76.6,37.2z M59.5,43.6c0.4-0.1,0.9-0.1,1.1-0.2  c1.3-1.1,2.9-2,3.3-3.9c0.2-0.7-0.1-1.5-0.7-1.4c-0.5,0-1,0.1-1.4,0.4C60.4,39.3,59.4,41.6,59.5,43.6z M58.7,34.9c0-0.6,0-1,0-1.2  c-0.6-0.6-1.2-0.9-1.5-1.5c-0.3-0.5-0.7-0.8-1.3-0.9c-1.2-0.2-2,0.1-2.3,1.1c-0.3,0.9,0.3,2.3,1.2,2.6c0.2,0.1,0.4,0.1,0.5,0  C56.3,34.4,57.5,34.3,58.7,34.9z M65.7,38.1c0.7,0.1,1.4,0.1,2,0.3c0.6,0.2,1,0.1,1.6-0.2c1-0.6,1.9-1.4,1.8-2.7c0-0.3,0-0.9-0.2-1  c-0.3-0.2-0.9-0.3-1.2-0.1C67.9,35.2,66.6,36.4,65.7,38.1z M37.3,19.1c0.1-1-0.2-2-1-2.7c-0.5-0.5-1.4-0.8-2.1-0.8  c-0.6,0-1.4,1.4-1.3,2.1c0,0.7,0.3,1,1.1,1.2c0.8,0.2,1.5,0.7,2.3,1.1c0.2,0.1,0.5,0.3,0.7,0.5c0.1-0.3,0.2-0.6,0.3-0.9  C37.3,19.5,37.3,19.3,37.3,19.1z M28.6,15.5c-0.1-0.5-0.4-0.8-0.3-1.2c0.1-0.7-0.3-1.1-0.9-1.3c-0.4-0.2-0.9-0.4-1.3-0.6  c-0.8-0.3-1.6-0.7-2.3,0.1c-0.6,0.8-0.1,1.5,0.3,2.2c0.1,0.2,0.4,0.4,0.6,0.5C26,16.3,27.3,15.8,28.6,15.5z M69,27.1  c-0.1,0-0.2-0.1-0.2-0.1c0-1-0.5-1.4-1.7-1.7c-0.8-0.2-1.4,0.2-1.8,1c-0.5,1.1,0,2.1,0.5,3c0.2,0.4,0.4,0.7,0.7,1  c0.3-0.2,0.5-0.5,0.8-0.7c0.1-0.1,0.2-0.2,0.3-0.3C68,28.6,68.5,27.9,69,27.1z M64,32.8c0.4-0.6,0.7-1,1-1.4  c0.4-0.4,0.5-0.9,0.3-1.4c-0.2-0.5-0.5-1-0.8-1.4c-0.6-0.8-2-1-2.9-0.3c-0.5,0.4-0.5,1.4,0.1,2.1C62.4,31.2,63.2,32,64,32.8z   M34.3,14.8c-0.5-0.9-2.5-2.3-3.5-2.1c-0.7,0.2-1.4,0.7-1.8,1.2c-0.2,0.2,0.1,1.1,0.4,1.3c0.4,0.4,1.1,0.4,1.7,0.6  c1,0.4,1.9,0.5,2.6-0.5C33.7,15.1,34,15,34.3,14.8z M59.6,39c0.5-0.3,0.9-0.5,1-0.8c0.1-0.3-0.1-0.7-0.3-1c-0.4-0.5-0.9-0.9-1.4-1.3  c-0.8-0.6-1.7-0.9-2.7-0.4c-0.4,0.2-0.8,0.7-0.9,1.1c-0.1,0.3,0.4,0.8,0.7,1C57.1,38.1,58.3,38.5,59.6,39z M69.6,33  c0.9-0.8,1.7-1.4,2.4-2.1c0.5-0.5,0.7-1.2,0.2-1.6c-0.5-0.4-1.4-0.8-1.9-0.7c-1,0.3-1.8,0.9-2.7,1.4c0,0.1,0,0.2,0,0.3  C68.8,30.8,69.2,31.8,69.6,33z M65.5,39.4c0.3,0.5,0.6,1.1,0.9,1.6c0.3,0.6,0.6,1.1,0.9,1.7c0.3,0.5,1.2,0.9,1.8,0.6  c0.6-0.3,1-0.7,0.8-1.4c-0.1-0.5-0.4-0.9-0.6-1.4C68.6,39.2,66.8,38.6,65.5,39.4z M27.6,18.9c-0.5-0.2-1.1-0.5-1.7-0.8  c-0.6-0.3-1.1-0.7-1.7-0.9c-0.7-0.2-1.5-0.5-2,0.3c-0.4,0.6,0,1.3,0.5,1.6c0.9,0.6,1.8,1,2.7,1.4c0.3,0.1,0.9,0,1.1-0.2  C27,19.9,27.3,19.3,27.6,18.9z M36,15.3c0.9-0.8,1.7-1.6,1.5-2.8c-0.1-0.6-0.3-1.3-0.8-1.6c-0.3-0.2-1.2,0-1.6,0.3  c-0.8,0.6-0.9,1.6-0.8,2.5C34.4,14.6,34.9,15.2,36,15.3z M38.1,11.9c1.2-0.9,1.8-2.4,1.4-3.2c-0.4-0.6-1.6-1.2-2.5-1  c-1,0.2-1.8,1.2-1.9,2.7C36.5,10,37.8,10,38.1,11.9z M26,16.3c-1.3-0.1-2.1-0.7-2.7-1.7c-0.1-0.2-0.6-0.4-1-0.4  c-0.5,0-1,0.1-1.4,0.3c-0.4,0.2-1,0.6-0.9,0.8c0.2,0.6,0.5,1.2,0.9,1.6c0.2,0.2,0.9,0.1,1.3,0.1c0.5,0,0.9-0.2,1.4-0.2  c0.6,0.1,1.2,0.3,1.9,0.4C25.6,16.9,25.8,16.6,26,16.3z M26.6,21c-1.5,0.3-2.2,1-2.2,2c0,1,0.1,2,0.2,3c0,0.5,0,1,0.7,1.1  c0.7,0,0.9-0.5,1-1C26.4,24.4,26.5,22.7,26.6,21z M40.6,13.6c0,0.1,0,0.1,0.1,0.2c0.7,0.3,1.4,0.6,2.2,0.8c0.9,0.2,1.8,0.5,2.7,0.6  c0.7,0.1,1.2-0.3,1.1-1.2c-0.1-0.8-1-1.5-1.9-1.3C43.4,12.9,42,13.3,40.6,13.6z M52.3,34.1c0.2-0.8,0.5-1.6,0.6-2.4  c0-0.3-0.3-0.6-0.6-0.9c-0.2-0.2-0.6-0.2-0.9-0.2c-1.3-0.3-2,0.2-2.1,1.5C49.3,33.2,50.7,34.2,52.3,34.1z M58.6,32.7  c1.3-0.5,2.2-0.9,3-1.2c-0.3-0.4-0.8-0.8-0.9-1.4c-0.3-1.3-1.3-0.8-2-0.7c-0.4,0.1-1,0.6-1.1,1C57.1,31.4,57.9,32.5,58.6,32.7z   M70.2,33.2c1.1,0.1,2,0.4,2.2,1.6c1.3-0.5,2.1-1.4,2.6-2.5c0.1-0.3-0.1-0.9-0.4-1.1c-0.7-0.5-1.5-0.3-2.1,0.3  c-0.5,0.5-1.1,0.8-1.6,1.2C70.6,33,70.4,33.1,70.2,33.2z M33.6,13.3c0.3-0.8,0.6-1.6,0.8-2.4c0.2-0.6-0.7-1.6-1.3-1.8  c-0.7-0.2-1.1,0-1.2,0.6c-0.2,0.7-0.3,1.5-0.4,2.2c0,0.1,0.1,0.4,0.3,0.4C32.4,12.7,33,13,33.6,13.3z M44.5,17.7  c-0.5-1.8-1.8-2.8-3.6-3.2c-0.5-0.1-1.1,0-1.7,0c0,0.1,0,0.2,0,0.2c1.7,0.6,2,1,1.4,2.2c0.3,0.1,0.6,0.1,0.8,0.2  c0.5,0.3,1.1,0.6,1.6,0.9C43.6,18.3,44.1,18.2,44.5,17.7z M30.9,9.9c0.5-0.5,1.1-0.9,1.5-1.5c0.3-0.4,0.9-0.9,0.4-1.6  C32.2,6,31,5.6,30.2,6.2c-0.8,0.6-0.9,1.8-0.2,2.6C30.4,9.1,30.7,9.6,30.9,9.9z M60.3,28.6c0.5-0.9,0.4-1.5-0.5-2  c-0.9-0.6-2.1-0.4-2.7,0.4c-0.8,1-0.8,1.9,0,2.5C58,28.6,59,28.2,60.3,28.6z M57,30.8c-0.2-0.4-0.5-0.7-0.7-1  c-0.2-0.3-0.4-0.5-0.6-0.8c-0.2-0.3-0.4-0.7-0.7-0.8c-0.6-0.1-1.2,0-1.7,0.1c-0.8,0.1-0.8,0.7-0.7,1.3c0.1,0.7,0.8,1.2,1.4,1.2  C54.9,30.7,55.8,30.8,57,30.8z M74.8,44.1c0-1-2.2-3.2-3.2-3.2c-0.1,0-0.1,0-0.2,0c-0.2,0.1-0.5,0.3-0.6,0.5c-0.1,0.2,0,0.5,0.1,0.7  c0.1,0.3,0.4,0.5,0.5,0.8c0.6,0.9,1.2,1.8,2.6,1.9C74.6,44.8,74.8,44.6,74.8,44.1z M79.9,37.4c0.2,0.6,0.4,1.1,0.4,1.5  c0.2,1.6,0.3,1.7,1.9,1.1c0.1,0,0.2-0.1,0.3-0.2c0.6-0.3,1-0.7,0.8-1.5c-0.2-0.7-0.5-1.2-1.3-1.2C81.4,37.2,80.7,37.3,79.9,37.4z   M39.6,4.9c-0.1-0.7-0.9-1.1-1.7-1.2c-0.9-0.1-1.8,0.7-2.2,1.8c0.4,0.4,0.7,0.8,1,1.2c0.2,0.2,0.4,0.5,0.5,0.5  c0.3,0,0.6-0.3,0.8-0.5C38.6,6.2,39,5.6,39.6,4.9z M25.1,21c-0.7-0.4-1.3-0.7-1.9-1.1c-0.7-0.4-1.3-0.5-1.9,0  c-0.2,0.1-0.4,0.3-0.6,0.3c-1,0.1-0.8,0.9-0.7,1.4c0.2,0.7,0.8,0.6,1.5,0.4c1-0.3,1.9-0.5,2.9-0.7C24.6,21.3,24.9,21.1,25.1,21z   M64.5,39.6c-0.3,1.4-0.7,2.8-0.9,4.1c0,0.3,0.3,0.8,0.5,0.8c0.4,0,0.9-0.2,1.1-0.5c0.3-0.3,0.3-0.8,0.4-1.2  C66,41.7,65.6,40.5,64.5,39.6z M42.4,12.4c0.3,0,0.6-0.1,0.9-0.1c0.9-0.1,1.9-0.9,1.9-1.7c0-0.4-0.1-0.9-0.4-1.3  c-0.1-0.2-0.7,0-1.1,0.1C42.4,9.9,42.1,10.5,42.4,12.4z M25.8,9.7c-0.4-0.1-0.7-0.2-1-0.2c-1-0.2-2,0.1-2.2,0.8  c-0.1,0.4,0,0.9,0.1,1.4c0,0.2,0.4,0.4,0.6,0.3c1-0.2,1.9-0.4,2.9-0.6C26,11,25.9,10.4,25.8,9.7z M76.7,28.4c-0.1,0.7,0,1.5-0.3,2  c-0.4,0.6-0.5,0.9-0.2,1.2c0.9,0.1,1.5,0.2,2.3,0.3c0.7-0.4,0.5-1.1,0.3-1.9C78.3,29,77.8,28.4,76.7,28.4z M69.2,28.3  c1-0.6,1.8-0.5,2.6,0c0.2,0.1,0.5,0.2,0.7,0.4c0.1-0.3,0.3-0.6,0.3-0.9c0-0.3-0.2-0.7-0.3-1c-0.4-1-1.3-0.8-2.1-0.7  c-0.7,0.1-0.9,0.5-0.9,1.2C69.5,27.5,69.3,27.8,69.2,28.3z M28.9,7.5c0.1-0.3,0.2-0.8,0.5-1.2c0.4-0.6,0.3-0.9-0.4-1.1  c-0.8-0.2-1.5-0.1-2.1,0.6c-0.6,0.7-1.1,1.3-0.7,2.2C27.1,7.8,27.9,7.7,28.9,7.5z M39.8,8.1c0.6-0.2,1.1-0.3,1.6-0.4  c0.2-0.1,0.4-0.2,0.5-0.3c0.4-0.7-0.1-1.6-1-1.8c-1.2-0.2-1.9,0.3-2.5,1.7C38.9,7.6,39.5,7.9,39.8,8.1z M22.9,13.4  c0-0.9-0.7-1.5-1.3-1.9c-0.4-0.2-1.3,0.2-1.7,0.5c-0.6,0.6-0.6,1.4-0.1,2C20.8,13.8,21.8,13.6,22.9,13.4z M73.8,27.4  c-0.2,0.5-0.4,1-0.5,1.5c-0.1,0.5-0.2,1-0.3,1.6c0.9,0,1.5,0,2.2,0C76.4,28.9,75.8,27.8,73.8,27.4z M40.5,10.8  c-2.2,1.5-2.2,1.5-2.8,4c1.2-0.8,2.3-1.7,3.5-2.4c0.7-0.5,0.5-0.9,0-1.2C40.9,11,40.7,10.9,40.5,10.8z M34.3,3.5  c-1.2,0-2.2,0.9-2,1.8c0.1,0.4,0.7,0.9,1.2,1.1c0.4,0.2,2-1.4,1.8-1.8C35,4.1,34.5,3.8,34.3,3.5z M21.8,18.9  c-0.3-1.2-0.5-1.5-1.7-1.7c-0.4-0.1-1,0.2-1.3,0.5c-0.3,0.3-0.5,0.9-0.3,1.2c0.5,1,1,1,2.1,0.6C20.9,19.3,21.3,19.1,21.8,18.9z   M77.5,40.9c1,1.4,2.2,2.4,3.9,3C81.7,42,79.5,40.4,77.5,40.9z M36.2,7c-0.3-1.1-0.9-1.3-1.9-0.4c-0.5,0.4-0.8,1.1-1.2,1.6  c0.6,0.5,1.1,0.8,1.5,1.1C35.1,8.6,35.6,7.9,36.2,7z M77.3,42.3c-0.6-1.4-2.1-2-3.8-1.4C74.8,42.8,76.2,43.3,77.3,42.3z M77.6,38  c-0.4,0.8-0.7,1.5-1,2.3c0.7-0.1,1.5-0.2,2.3-0.4c0.3-0.1,0.7-0.6,0.7-0.8c-0.1-0.4-0.4-0.9-0.7-1C78.4,37.9,77.8,38,77.6,38z   M64.6,27.1c-0.2-0.5-0.3-1.3-0.8-1.5c-0.4-0.2-1.3,0-1.9,0.3c-0.7,0.3-0.9,0.9-0.8,1.5C62.3,27.3,63.3,27.2,64.6,27.1z M36.5,15.7  c0.4,0.4,0.6,1.1,1.1,1.2c0.6,0.2,1.4,0,2.1-0.1c0.2,0,0.6-0.4,0.6-0.6c0-0.2-0.3-0.5-0.5-0.6c-0.6-0.1-1.3-0.1-2-0.1  C37.5,15.5,37.2,15.6,36.5,15.7z M26.1,9.5c-0.3-0.8-0.5-1.5-0.8-2.3c-0.4,0.1-0.9,0-1.1,0.2c-0.3,0.3-0.5,0.8-0.7,1.2  c0.3,0.1,0.5,0.3,0.8,0.4C24.8,9.1,25.3,9.2,26.1,9.5z M41.7,10.2c0.1-0.3,0.2-0.6,0.4-0.9c0.2-0.5,0.2-0.9-0.4-1  c-0.5-0.1-1.2,0-1.3,0.6c-0.1,0.5-0.1,1-0.1,1.4C40.7,10.2,41.1,10.2,41.7,10.2z M52,41.4c-2.2-0.2-6,1.2-6.8,2.5  C47.4,42.5,49.7,41.8,52,41.4z M32,4.3c-1-0.4-1.8-0.2-2.1,0.6c0,0.1,0.2,0.5,0.4,0.5c0.5,0,1-0.1,1.5-0.1C31.8,5,31.9,4.7,32,4.3z   M69.2,44.2c-0.5-0.1-0.9-0.1-1.2-0.2c0.3,1,0.7,1.9,1,2.8C69,46.1,69.1,45.2,69.2,44.2z M43.1,9.1c0.4-0.4,0.7-0.7,0.8-1  c0-0.1-0.4-0.5-0.6-0.5c-0.3-0.1-0.7,0.1-1.1,0.2c0.3,0.3,0.4,0.4,0.5,0.6C42.8,8.5,42.9,8.7,43.1,9.1z M79.3,44.4  c-1-1.3-1.5-1.5-2.4-0.7C77.7,43.9,78.4,44.1,79.3,44.4z"/></svg>